<?xml version="1.0" encoding="utf-8"?>
<!-- Generator: Adobe Illustrator 22.0.1, SVG Export Plug-In . SVG Version: 6.00 Build 0)  -->
<svg version="1.1" xmlns="http://www.w3.org/2000/svg" xmlns:xlink="http://www.w3.org/1999/xlink" x="0px" y="0px"
	 viewBox="0 0 370.7 110.8" style="enable-background:new 0 0 370.7 110.8;" xml:space="preserve">
<style type="text/css">
	.st0{fill:#000089;}
	.st1{fill:#FFFFFF;}
	.st2{opacity:0.31;fill:#320D0D;stroke:#4F4F4F;stroke-miterlimit:10;}
	.st3{fill:#204582;}
	.st4{opacity:7.000000e-02;fill:#FF0D0D;}
</style>
<g id="Large">
	<g>
		<path class="st3" d="M61.1,10.6c-0.7-1.3-1.8-2.8-2.9-3.7c-1-0.7-2.7-1.7-5.5-1.7c-4.8,0-8.2,3-8.2,7.5c0,1.9,0.5,3,1.8,4.2
			c1.5,1.5,3.3,2.3,5.1,3.1l4.7,2c2.9,1.2,5.5,2.6,7.5,4.6c2.5,2.5,3.5,5.3,3.5,8.8c0,9-6.7,15-15.4,15c-3.2,0-7.2-0.7-10.6-3.9
			c-2.4-2.3-3.9-5.7-4.5-8.6l5.3-1.5c0.4,2.6,1.5,4.8,2.9,6.2c2.1,2.1,4.5,2.7,7,2.7c6.7,0,9.8-4.8,9.8-9.6c0-2.2-0.7-4.1-2.4-5.7
			c-1.4-1.3-3.3-2.2-5.8-3.4l-4.4-2c-1.9-0.9-4.3-1.9-6.5-4c-2.1-2-3.4-4.3-3.4-8c0-7.5,5.8-12.6,13.7-12.6c3,0,5.4,0.6,7.8,2.2
			c2,1.3,3.7,3.3,4.8,5.4L61.1,10.6z"/>
		<path class="st3" d="M82.6,21.8l20.8-20.9h7.3L87.9,23.6l23.5,26H104L84,27.3l-1.4,1.4v21h-5.4V0.9h5.4V21.8z"/>
		<path class="st3" d="M144,6h-19.9v14.5h19.3v5.1h-19.3v18.9H144v5.1h-25.3V0.9H144V6z"/>
		<path class="st3" d="M166,6v43.6h-5.4V6h-11.8V0.9h29.1V6H166z"/>
		<path class="st3" d="M219.8,11.7c-1.5-1.5-3.9-3.4-6.4-4.5c-2.6-1.2-5.6-1.9-8.4-1.9c-11.3,0-19.6,9.1-19.6,20.3
			c0,13.2,10.7,19.9,19.7,19.9c3.3,0,6.5-1,9.1-2.3c2.8-1.4,4.8-3.2,5.6-4.1v6.7c-5.4,3.9-11,4.8-14.7,4.8
			c-14.5,0-25.2-11-25.2-25.1c0-14.5,10.9-25.4,25.5-25.4c2.9,0,8.6,0.4,14.4,4.8V11.7z"/>
		<path class="st3" d="M235.2,20.7h25V0.9h5.4v48.8h-5.4V25.8h-25v23.8h-5.4V0.9h5.4V20.7z"/>
		<path class="st3" d="M332.7,31.8c-1.3,1.8-3.2,4.2-6.2,7.2l8.2,10.6H328l-5.3-6.8c-4.2,4.2-10.2,7.7-15.7,7.7
			c-8,0-14.1-5.8-14.1-13.5c0-5.3,2.8-8.5,4.4-10.1c2.6-2.6,7.2-5.4,8.2-6.1c-3.3-4.2-4.8-7.2-4.8-10.5c0-5.1,3.6-10.3,10.6-10.3
			c6.8,0,10.3,4.9,10.3,9.8c0,2.3-0.7,5.5-4.5,8.8c-1.2,1.1-0.8,0.5-3.9,3.1L323.2,35c2.6-2.8,4.2-4.5,5.6-6.4L332.7,31.8z
			 M308.6,24.9c-3.6,2.2-5.5,3.8-6.9,5c-1.4,1.2-3.4,3.2-3.4,7c0,4.8,3.6,8.6,8.6,8.6c5.2,0,10.7-5,12.5-6.7L308.6,24.9z
			 M309.9,17.9l3.2-2.5c2.8-2.2,3.3-3.9,3.3-5.6c0-3.4-2.7-5-5.3-5c-3,0-5.4,2.3-5.4,5.3c0,2.1,1,3.5,2,4.8L309.9,17.9z"/>
		<path class="st3" d="M37.3,108.1c-4.3,2.2-7.8,2.6-10.7,2.6c-9,0-15.1-3.1-19.2-7.1C3.1,99.4-0.2,93-0.2,85.2
			c0-7.7,3.2-14.1,7.6-18.3c4.3-4.2,10.6-7,18.2-7c3.2,0,6.9,0.7,11.7,2.7v13c-2.5-2.6-6.2-5.2-11.4-5.2c-4.1,0-7.4,1.3-9.9,3.8
			c-2.7,2.6-4.6,6.6-4.6,11.3c0,5,2,8.6,4.2,10.7c1,1,4.5,4.1,10.5,4.1c2.9,0,6.9-0.8,11.2-5V108.1z"/>
		<path class="st3" d="M57.6,79.5H77V60.9h11.3v48.8H77V89H57.6v20.7H46.3V60.9h11.3V79.5z"/>
		<path class="st3" d="M127.6,100.5h-18.4l-3.7,9.2H93.8l19.7-48.8h10.3l19.2,48.8h-11.7L127.6,100.5z M124.5,91.8l-6-16.4
			l-6.1,16.4H124.5z"/>
		<path class="st3" d="M165.6,60.9c6.2,0,10.1,2,12.4,4.2c2,2,4.2,5.5,4.2,10.9c0,3.1-0.7,6.9-3.8,9.9c-1.7,1.6-4.1,3.1-6.8,3.7
			l15,20h-13.7l-13.2-19.2v19.2h-11.3V60.9H165.6z M159.7,83.1h2.6c2,0,4.8-0.2,6.7-2.1c0.8-0.8,1.8-2.3,1.8-4.8
			c0-2.8-1.3-4.2-2.3-5c-1.8-1.4-4.8-1.5-6.2-1.5h-2.6V83.1z"/>
		<path class="st3" d="M228.1,108.1c-4.3,2.2-7.8,2.6-10.7,2.6c-9,0-15.1-3.1-19.2-7.1c-4.4-4.2-7.6-10.7-7.6-18.5
			c0-7.7,3.2-14.1,7.6-18.3c4.3-4.2,10.6-7,18.2-7c3.2,0,6.9,0.7,11.7,2.7v13c-2.5-2.6-6.2-5.2-11.4-5.2c-4.1,0-7.4,1.3-9.9,3.8
			c-2.7,2.6-4.6,6.6-4.6,11.3c0,5,2,8.6,4.2,10.7c1,1,4.5,4.1,10.5,4.1c2.9,0,6.9-0.8,11.2-5V108.1z"/>
		<path class="st3" d="M280.3,66.9c4.6,4.5,7.6,10.9,7.6,18.4c0,6.5-2.3,13.2-7.6,18.3c-4.5,4.4-10.7,7.2-18.9,7.2
			c-9.1,0-15.4-3.7-19-7.2c-4.7-4.4-7.6-11-7.6-18.1c0-7,3.1-14.1,7.5-18.5c3.3-3.3,9.4-7.2,19.1-7.2
			C269,59.8,275.4,62.2,280.3,66.9z M250.7,74.4c-2.1,2-4.3,5.6-4.3,11c0,4.5,1.5,8,4.5,11c3.1,3,6.7,4,10.5,4c5,0,8.5-1.8,10.8-4.2
			c1.9-1.8,4.2-5.3,4.2-10.9c0-5-2-8.8-4.2-11c-2.4-2.3-6.3-4.2-10.7-4.2C257.1,70.2,253.3,71.7,250.7,74.4z"/>
		<path class="st3" d="M323.5,100.5H305l-3.7,9.2h-11.7l19.7-48.8h10.3l19.2,48.8h-11.7L323.5,100.5z M320.4,91.8l-6-16.4l-6.1,16.4
			H320.4z"/>
		<path class="st3" d="M355.6,60.9v39.3h15.1v9.5h-26.4V60.9H355.6z"/>
	</g>
</g>
<g id="Layer_2">
</g>
</svg>
