<?xml version="1.0" encoding="utf-8"?>
<!-- Generator: Adobe Illustrator 22.0.1, SVG Export Plug-In . SVG Version: 6.00 Build 0)  -->
<svg version="1.1" xmlns="http://www.w3.org/2000/svg" xmlns:xlink="http://www.w3.org/1999/xlink" x="0px" y="0px"
	 viewBox="0 0 276.8 112.4" style="enable-background:new 0 0 276.8 112.4;" xml:space="preserve">
<style type="text/css">
	.st0{fill:#000089;}
	.st1{fill:#FFFFFF;}
	.st2{opacity:0.31;fill:#320D0D;stroke:#4F4F4F;stroke-miterlimit:10;}
	.st3{fill:#204582;}
	.st4{opacity:7.000000e-02;fill:#FF0D0D;}
</style>
<g id="Large">
	<g>
		<path class="st3" d="M27.7,26.7H48v1.2c0,5.4-1.6,11.3-4.7,15.4c-1.5,2-6.9,8.8-18.1,8.8c-14.5,0-25.3-11-25.3-25.2
			S10.8,1.7,25.3,1.7c4.7,0,10.2,1.2,14.9,4.8c2.2,1.7,4.2,3.9,5.6,5.8l-4,3.7c-1.4-2-3-3.7-4.6-5c-2.3-1.9-6-4.1-11.8-4.1
			c-11.8,0-20,8.8-20,20.2c0,13.3,10.6,20,19.8,20c6.5,0,12.1-3.3,14.9-8.2c0.9-1.5,1.8-3.9,2-6.9H27.7V26.7z"/>
		<path class="st3" d="M65.8,2.5c3.3,0,8.2,0.2,11.8,2.7c2.9,1.9,5.3,5.6,5.3,10.8c0,7.5-4.9,12.9-12.3,13.5l15.5,21.8h-6.6
			L64.7,29.9h-1.4v21.3h-5.4V2.5H65.8z M63.4,25h3.4c6.7,0,10.7-3.2,10.7-8.9c0-2.7-0.8-5.4-3.9-7.2c-2.2-1.2-4.7-1.4-7-1.4h-3.3V25
			z"/>
		<path class="st3" d="M121.5,37.5h-20.8l-5.8,13.7h-6l22.4-51.1l21.9,51.1h-6L121.5,37.5z M119.4,32.4l-8.2-19.5l-8.3,19.5H119.4z"
			/>
		<path class="st3" d="M149,2.5c4.9,0,9,0.6,12.3,3.4c3.6,3.1,4.5,7.4,4.5,10.5c0,6.9-4.3,13.7-15.4,13.7h-4.8v21.2h-5.4V2.5H149z
			 M145.5,24.9h4.5c6.4,0,10.3-3.2,10.3-8.8c0-7.7-7.2-8.5-10.7-8.5h-4V24.9z"/>
		<path class="st3" d="M178.9,22.3h25V2.5h5.4v48.8h-5.4V27.4h-25v23.8h-5.4V2.5h5.4V22.3z"/>
		<path class="st3" d="M227.3,2.5v48.8h-5.4V2.5H227.3z"/>
		<path class="st3" d="M277.1,13.2c-1.5-1.5-3.9-3.4-6.4-4.5c-2.6-1.2-5.6-1.9-8.4-1.9c-11.3,0-19.6,9.1-19.6,20.3
			c0,13.2,10.7,19.9,19.7,19.9c3.3,0,6.5-1,9.1-2.3c2.8-1.4,4.8-3.2,5.6-4.1v6.7c-5.4,3.9-11,4.8-14.7,4.8
			c-14.5,0-25.2-11-25.2-25.1c0-14.5,10.9-25.4,25.5-25.4c2.9,0,8.6,0.4,14.4,4.8V13.2z"/>
		<path class="st3" d="M27.5,62.5c6.4,0,13.2,1,19.2,6.7c4.3,4.2,7,9.9,7,17.5c0,7.7-2.6,13.2-6.7,17.3c-6.7,6.8-15.1,7.3-19.2,7.3
			H12V62.5H27.5z M23.3,101.7h3c2.3,0,7.5-0.2,11.1-3.3c2.6-2.2,4.8-6.4,4.8-11.8c0-5.3-2.1-8.6-4-10.5c-3.7-3.7-8.4-4.2-11.8-4.2
			h-3V101.7z"/>
		<path class="st3" d="M89.7,72H73.4v9.4h15.5v9.5H73.4v10.8h16.3v9.5H62.1V62.5h27.6V72z"/>
		<path class="st3" d="M124,74.4c-3.7-3.3-6.8-3.5-8.2-3.5c-1.5,0-3.4,0.2-4.8,1.7c-0.7,0.7-1.2,1.8-1.2,3.1c0,1.2,0.4,2,1.1,2.7
			c1.2,1.1,2.9,1.5,6.1,2.8l3.7,1.4c2.1,0.8,4.8,1.9,6.7,3.7c2.9,2.7,3.6,6.2,3.6,9.1c0,5-1.8,9.4-4.3,12.1c-4.3,4.5-10.6,5-13.8,5
			c-3.5,0-6.6-0.5-9.6-2c-2.5-1.2-5.3-3.5-7.2-5.3l5.8-8c1.2,1.2,3.2,2.9,4.5,3.7c1.9,1.2,3.9,1.8,6.1,1.8c1.5,0,3.5-0.3,5.1-1.7
			c1-0.8,1.8-2.1,1.8-3.9c0-1.6-0.7-2.6-1.7-3.5c-1.3-1.1-4.3-2.2-5.7-2.7l-4-1.4c-2.3-0.8-4.9-1.8-6.8-3.9
			c-2.6-2.7-2.9-6.1-2.9-8.5c0-4.3,1.3-8,4.2-11c3.4-3.5,7.5-4.5,12.1-4.5c3.4,0,8.8,0.6,14.5,4.8L124,74.4z"/>
		<path class="st3" d="M150.5,62.5v48.8h-11.3V62.5H150.5z"/>
		<path class="st3" d="M184.9,84.6H209v0.5c0,5.9-2.1,14.9-7.5,20.5s-11.6,6.7-17.4,6.7c-5.8,0-12.1-1-17.8-6.8
			c-2.9-2.9-7.2-8.8-7.2-18.6c0-8,2.9-14.3,7-18.5c6-6.2,13.4-7.1,19.2-7.1c4,0,9.1,0.7,13.7,3.7c3.3,2.2,6.1,5.6,7.9,8.7l-10.2,5.5
			c-1-1.9-2.4-3.9-4.3-5.3c-2.2-1.6-4.7-2.3-7.5-2.3c-4.5,0-7.7,1.5-10.1,3.9c-2.7,2.9-4.2,7-4.2,11.5c0,5.6,2,9.1,4.1,11.2
			c2.9,2.9,6.1,3.8,9.9,3.8c4.8,0,7.4-1.7,8.5-2.6c0.4-0.3,2.6-2.2,3.5-5.8h-11.8V84.6z"/>
		<path class="st3" d="M217.5,111.2V62.5h9.8l26.5,31.4V62.5H265v48.8h-9.8l-26.5-31.6v31.6H217.5z"/>
	</g>
</g>
<g id="Layer_2">
</g>
</svg>
