<?xml version="1.0" encoding="utf-8"?>
<!-- Generator: Adobe Illustrator 22.0.1, SVG Export Plug-In . SVG Version: 6.00 Build 0)  -->
<svg version="1.1" xmlns="http://www.w3.org/2000/svg" xmlns:xlink="http://www.w3.org/1999/xlink" x="0px" y="0px"
	 viewBox="0 0 429.2 111.4" style="enable-background:new 0 0 429.2 111.4;" xml:space="preserve">
<style type="text/css">
	.st0{fill:#000089;}
	.st1{fill:#FFFFFF;}
	.st2{opacity:0.31;fill:#320D0D;stroke:#4F4F4F;stroke-miterlimit:10;}
	.st3{fill:#204582;}
	.st4{opacity:7.000000e-02;fill:#FF0D0D;}
</style>
<g id="Large">
	<g>
		<path class="st3" d="M61.9,6.9H45.1v14.4h16.2v5.1H45.1v24.1h-5.4V1.8h22.2V6.9z"/>
		<path class="st3" d="M79.2,1.8c3.3,0,8.2,0.2,11.8,2.7c2.9,1.9,5.3,5.6,5.3,10.8c0,7.5-4.9,12.9-12.3,13.5l15.5,21.8h-6.6
			L78.2,29.2h-1.4v21.3h-5.4V1.8H79.2z M76.8,24.3h3.4c6.7,0,10.7-3.2,10.7-8.9c0-2.7-0.8-5.4-3.9-7.2c-2.2-1.2-4.7-1.4-7-1.4h-3.3
			V24.3z"/>
		<path class="st3" d="M105.5,26.2c0-14.5,11.3-25.2,25.4-25.2s25.4,10.7,25.4,25.2c0,14.5-11.3,25.2-25.4,25.2
			C116.7,51.4,105.5,40.6,105.5,26.2z M111,26.2c0,11.2,8.8,20.1,19.8,20.1c11,0,19.8-8.9,19.8-20.1c0-11.2-8.8-20.1-19.8-20.1
			C119.9,6.1,111,15,111,26.2z"/>
		<path class="st3" d="M166.2,50.5V-0.3l38,39.8V1.8h5.4v51l-38-39.8v37.6H166.2z"/>
		<path class="st3" d="M234.2,6.9v43.6h-5.4V6.9h-11.8V1.8H246v5.1H234.2z"/>
		<path class="st3" d="M295.6,6.9h-19.9v14.5H295v5.1h-19.3v18.9h19.9v5.1h-25.3V1.8h25.3V6.9z"/>
		<path class="st3" d="M305.6,50.5V-0.3l38,39.8V1.8h5.4v51l-38-39.8v37.6H305.6z"/>
		<path class="st3" d="M361.6,1.8h9.9c4.9,0,11.8,0.5,18,5.7c4.5,3.7,8.3,9.9,8.3,18.7c0,10.2-5,15.7-8.6,18.7
			c-4.5,3.8-9.1,5.6-17.8,5.6h-9.9V1.8z M367,45.4h4.8c3.9,0,9.2-0.4,14-4.4c3.7-3.1,6.6-7.9,6.6-14.8c0-11.7-8.2-19.3-20.5-19.3
			H367V45.4z"/>
		<path class="st3" d="M12.4,61.8l10.4,32.3l10.4-32.3h7.7l10.4,32.3l10.4-32.3h11.7l-16.6,48.8h-9.5L37.1,80.9l-10.2,29.6h-9.5
			L0.7,61.8H12.4z"/>
		<path class="st3" d="M106.6,71.3H90.3v9.4h15.5v9.5H90.3V101h16.3v9.5H79V61.8h27.6V71.3z"/>
		<path class="st3" d="M130.6,61.8c2.6,0,8.6,0.1,12.4,3.7c3.1,3,3.5,7.1,3.5,9.2c0,1.9-0.3,4.1-1.6,6.2c-1.2,2-2.9,3.1-4.1,3.6
			c2.3,0.4,5,1.5,6.7,3.3c1.6,1.6,3.1,4.4,3.1,8.7c0,4.9-1.9,8-3.8,9.9c-4,3.9-9.9,4.2-12.9,4.2h-18.3V61.8H130.6z M126.8,81.6h1.8
			c1.5,0,4.1-0.2,5.7-1.4c1-0.7,2-2.2,2-4.3s-1-3.4-1.9-4.1c-1.6-1.2-3.8-1.2-5.8-1.2h-1.8V81.6z M126.8,101.7h2.7
			c2.9,0,6.3-0.1,8.3-2c1-1,1.6-2.3,1.6-4.1c0-2-0.8-3.3-1.5-3.9c-2-1.8-5.8-1.8-8-1.8h-3.1V101.7z"/>
		<path class="st3" d="M191.6,61.8c6.4,0,13.2,1,19.2,6.7c4.3,4.2,7,9.9,7,17.5c0,7.7-2.6,13.2-6.7,17.3c-6.7,6.8-15.1,7.3-19.2,7.3
			h-15.8V61.8H191.6z M187.4,101h3c2.3,0,7.5-0.2,11.1-3.3c2.6-2.2,4.8-6.4,4.8-11.8c0-5.3-2.1-8.6-4-10.5
			c-3.7-3.7-8.4-4.2-11.8-4.2h-3V101z"/>
		<path class="st3" d="M253.8,71.3h-16.3v9.4H253v9.5h-15.5V101h16.3v9.5h-27.6V61.8h27.6V71.3z"/>
		<path class="st3" d="M288.1,73.7c-3.7-3.3-6.8-3.5-8.2-3.5c-1.5,0-3.4,0.2-4.8,1.7c-0.7,0.7-1.2,1.8-1.2,3.1c0,1.2,0.4,2,1.1,2.7
			c1.2,1.1,2.9,1.5,6.1,2.8l3.7,1.4c2.1,0.8,4.8,1.9,6.7,3.7c2.9,2.7,3.6,6.2,3.6,9.1c0,5-1.8,9.4-4.3,12.1c-4.3,4.5-10.6,5-13.8,5
			c-3.5,0-6.6-0.5-9.6-2c-2.5-1.2-5.3-3.5-7.2-5.3l5.8-8c1.2,1.2,3.2,2.9,4.5,3.7c1.9,1.2,3.9,1.8,6.1,1.8c1.5,0,3.5-0.3,5.1-1.7
			c1-0.8,1.8-2.1,1.8-3.9c0-1.6-0.7-2.6-1.7-3.5c-1.3-1.1-4.3-2.2-5.7-2.7l-4-1.4c-2.3-0.8-4.9-1.8-6.8-3.9
			c-2.6-2.7-2.9-6.1-2.9-8.5c0-4.3,1.3-8,4.2-11c3.4-3.5,7.5-4.5,12.1-4.5c3.4,0,8.8,0.6,14.5,4.8L288.1,73.7z"/>
		<path class="st3" d="M314.6,61.8v48.8h-11.3V61.8H314.6z"/>
		<path class="st3" d="M349,83.9h24.2v0.5c0,5.9-2.1,14.9-7.5,20.5s-11.6,6.7-17.4,6.7c-5.8,0-12.1-1-17.8-6.8
			c-2.9-2.9-7.2-8.8-7.2-18.6c0-8,2.9-14.3,7-18.5c6-6.2,13.4-7.1,19.2-7.1c4,0,9.1,0.7,13.7,3.7c3.3,2.2,6.1,5.6,7.9,8.7l-10.2,5.5
			c-1-1.9-2.4-3.9-4.3-5.3c-2.2-1.6-4.7-2.3-7.5-2.3c-4.5,0-7.7,1.5-10.1,3.9c-2.7,2.9-4.2,7-4.2,11.5c0,5.6,2,9.1,4.1,11.2
			c2.9,2.9,6.1,3.8,9.9,3.8c4.8,0,7.4-1.7,8.5-2.6c0.4-0.3,2.6-2.2,3.5-5.8H349V83.9z"/>
		<path class="st3" d="M381.6,110.5V61.8h9.8l26.5,31.4V61.8h11.3v48.8h-9.8l-26.5-31.6v31.6H381.6z"/>
	</g>
</g>
<g id="Layer_2">
</g>
</svg>
